<?xml version="1.0" encoding="UTF-8"?>
<!--Generator: Apple Native CoreSVG 149-->
<!DOCTYPE svg
PUBLIC "-//W3C//DTD SVG 1.1//EN"
       "http://www.w3.org/Graphics/SVG/1.1/DTD/svg11.dtd">
<svg version="1.1" xmlns="http://www.w3.org/2000/svg" xmlns:xlink="http://www.w3.org/1999/xlink" width="3300" height="2200">
 <!--glyph: "", point size: 100.0, font version: "17.0d8e1", template writer version: "58"-->
 <g id="Notes">
  <rect height="2200" id="artboard" style="fill:white;opacity:1" width="3300" x="0" y="0"/>
  <line style="fill:none;stroke:black;opacity:1;stroke-width:0.5;" x1="263" x2="3036" y1="292" y2="292"/>
  <text style="stroke:none;fill:black;font-family:SF Pro,SF Pro Display,SF Pro Text,sans-serif;font-size:13;font-weight:bold;" transform="matrix(1 0 0 1 263 322)">Weight/Scale Variations</text>
  <text style="stroke:none;fill:black;font-family:SF Pro,SF Pro Display,SF Pro Text,sans-serif;font-size:13;text-anchor:middle;" transform="matrix(1 0 0 1 559.711 322)">Ultralight</text>
  <text style="stroke:none;fill:black;font-family:SF Pro,SF Pro Display,SF Pro Text,sans-serif;font-size:13;text-anchor:middle;" transform="matrix(1 0 0 1 856.422 322)">Thin</text>
  <text style="stroke:none;fill:black;font-family:SF Pro,SF Pro Display,SF Pro Text,sans-serif;font-size:13;text-anchor:middle;" transform="matrix(1 0 0 1 1153.13 322)">Light</text>
  <text style="stroke:none;fill:black;font-family:SF Pro,SF Pro Display,SF Pro Text,sans-serif;font-size:13;text-anchor:middle;" transform="matrix(1 0 0 1 1449.84 322)">Regular</text>
  <text style="stroke:none;fill:black;font-family:SF Pro,SF Pro Display,SF Pro Text,sans-serif;font-size:13;text-anchor:middle;" transform="matrix(1 0 0 1 1746.56 322)">Medium</text>
  <text style="stroke:none;fill:black;font-family:SF Pro,SF Pro Display,SF Pro Text,sans-serif;font-size:13;text-anchor:middle;" transform="matrix(1 0 0 1 2043.27 322)">Semibold</text>
  <text style="stroke:none;fill:black;font-family:SF Pro,SF Pro Display,SF Pro Text,sans-serif;font-size:13;text-anchor:middle;" transform="matrix(1 0 0 1 2339.98 322)">Bold</text>
  <text style="stroke:none;fill:black;font-family:SF Pro,SF Pro Display,SF Pro Text,sans-serif;font-size:13;text-anchor:middle;" transform="matrix(1 0 0 1 2636.69 322)">Heavy</text>
  <text style="stroke:none;fill:black;font-family:SF Pro,SF Pro Display,SF Pro Text,sans-serif;font-size:13;text-anchor:middle;" transform="matrix(1 0 0 1 2933.4 322)">Black</text>
  <line style="fill:none;stroke:black;opacity:1;stroke-width:0.5;" x1="263" x2="3036" y1="1903" y2="1903"/>
  <g transform="matrix(1 0 0 1 263 1933)">
   <path d="M9.24805 0.830078Q10.8691 0.830078 12.2949 0.214844Q13.7207-0.400391 14.8096-1.49414Q15.8984-2.58789 16.5186-4.01367Q17.1387-5.43945 17.1387-7.05078Q17.1387-8.66211 16.5186-10.0879Q15.8984-11.5137 14.8047-12.6074Q13.7109-13.7012 12.2852-14.3164Q10.8594-14.9316 9.23828-14.9316Q7.62695-14.9316 6.20117-14.3164Q4.77539-13.7012 3.69141-12.6074Q2.60742-11.5137 1.9873-10.0879Q1.36719-8.66211 1.36719-7.05078Q1.36719-5.43945 1.9873-4.01367Q2.60742-2.58789 3.69629-1.49414Q4.78516-0.400391 6.21094 0.214844Q7.63672 0.830078 9.24805 0.830078ZM9.24805-0.654297Q7.91992-0.654297 6.7627-1.14746Q5.60547-1.64062 4.73145-2.51953Q3.85742-3.39844 3.36426-4.56055Q2.87109-5.72266 2.87109-7.05078Q2.87109-8.37891 3.35938-9.54102Q3.84766-10.7031 4.72168-11.582Q5.5957-12.4609 6.75293-12.9541Q7.91016-13.4473 9.23828-13.4473Q10.5762-13.4473 11.7334-12.9541Q12.8906-12.4609 13.7695-11.582Q14.6484-10.7031 15.1465-9.54102Q15.6445-8.37891 15.6445-7.05078Q15.6445-5.72266 15.1514-4.56055Q14.6582-3.39844 13.7842-2.51953Q12.9102-1.64062 11.748-1.14746Q10.5859-0.654297 9.24805-0.654297ZM5.83984-7.04102Q5.83984-6.71875 6.04492-6.51855Q6.25-6.31836 6.5918-6.31836L8.50586-6.31836L8.50586-4.39453Q8.50586-4.0625 8.70605-3.85742Q8.90625-3.65234 9.22852-3.65234Q9.56055-3.65234 9.76562-3.85742Q9.9707-4.0625 9.9707-4.39453L9.9707-6.31836L11.8945-6.31836Q12.2266-6.31836 12.4316-6.51855Q12.6367-6.71875 12.6367-7.04102Q12.6367-7.37305 12.4316-7.57812Q12.2266-7.7832 11.8945-7.7832L9.9707-7.7832L9.9707-9.69727Q9.9707-10.0391 9.76562-10.2441Q9.56055-10.4492 9.22852-10.4492Q8.90625-10.4492 8.70605-10.2441Q8.50586-10.0391 8.50586-9.69727L8.50586-7.7832L6.5918-7.7832Q6.25-7.7832 6.04492-7.57812Q5.83984-7.37305 5.83984-7.04102Z"/>
  </g>
  <g transform="matrix(1 0 0 1 281.867 1933)">
   <path d="M11.709 2.91016Q13.75 2.91016 15.5518 2.12891Q17.3535 1.34766 18.7305-0.0292969Q20.1074-1.40625 20.8887-3.20801Q21.6699-5.00977 21.6699-7.05078Q21.6699-9.0918 20.8887-10.8936Q20.1074-12.6953 18.7305-14.0723Q17.3535-15.4492 15.5469-16.2305Q13.7402-17.0117 11.6992-17.0117Q9.6582-17.0117 7.85645-16.2305Q6.05469-15.4492 4.68262-14.0723Q3.31055-12.6953 2.5293-10.8936Q1.74805-9.0918 1.74805-7.05078Q1.74805-5.00977 2.5293-3.20801Q3.31055-1.40625 4.6875-0.0292969Q6.06445 1.34766 7.86621 2.12891Q9.66797 2.91016 11.709 2.91016ZM11.709 1.25Q9.98047 1.25 8.47656 0.605469Q6.97266-0.0390625 5.83496-1.17676Q4.69727-2.31445 4.05762-3.81836Q3.41797-5.32227 3.41797-7.05078Q3.41797-8.7793 4.05762-10.2832Q4.69727-11.7871 5.83008-12.9297Q6.96289-14.0723 8.4668-14.7119Q9.9707-15.3516 11.6992-15.3516Q13.4277-15.3516 14.9316-14.7119Q16.4355-14.0723 17.5781-12.9297Q18.7207-11.7871 19.3652-10.2832Q20.0098-8.7793 20.0098-7.05078Q20.0098-5.32227 19.3701-3.81836Q18.7305-2.31445 17.5928-1.17676Q16.4551-0.0390625 14.9463 0.605469Q13.4375 1.25 11.709 1.25ZM7.39258-7.04102Q7.39258-6.68945 7.62695-6.46484Q7.86133-6.24023 8.23242-6.24023L10.8789-6.24023L10.8789-3.57422Q10.8789-3.21289 11.1035-2.9834Q11.3281-2.75391 11.6797-2.75391Q12.0508-2.75391 12.2852-2.9834Q12.5195-3.21289 12.5195-3.57422L12.5195-6.24023L15.1758-6.24023Q15.5371-6.24023 15.7715-6.46484Q16.0059-6.68945 16.0059-7.04102Q16.0059-7.41211 15.7715-7.6416Q15.5371-7.87109 15.1758-7.87109L12.5195-7.87109L12.5195-10.5176Q12.5195-10.8984 12.2852-11.1279Q12.0508-11.3574 11.6797-11.3574Q11.3281-11.3574 11.1035-11.1279Q10.8789-10.8984 10.8789-10.5176L10.8789-7.87109L8.23242-7.87109Q7.85156-7.87109 7.62207-7.6416Q7.39258-7.41211 7.39258-7.04102Z"/>
  </g>
  <g transform="matrix(1 0 0 1 305.646 1933)">
   <path d="M14.9707 5.66406Q17.0605 5.66406 18.96 5.01465Q20.8594 4.36523 22.4512 3.19336Q24.043 2.02148 25.2197 0.429688Q26.3965-1.16211 27.0459-3.06641Q27.6953-4.9707 27.6953-7.05078Q27.6953-9.14062 27.0459-11.04Q26.3965-12.9395 25.2197-14.5312Q24.043-16.123 22.4512-17.2998Q20.8594-18.4766 18.9551-19.126Q17.0508-19.7754 14.9609-19.7754Q12.8711-19.7754 10.9717-19.126Q9.07227-18.4766 7.48535-17.2998Q5.89844-16.123 4.72168-14.5312Q3.54492-12.9395 2.90039-11.04Q2.25586-9.14062 2.25586-7.05078Q2.25586-4.9707 2.90527-3.06641Q3.55469-1.16211 4.72656 0.429688Q5.89844 2.02148 7.49023 3.19336Q9.08203 4.36523 10.9814 5.01465Q12.8809 5.66406 14.9707 5.66406ZM14.9707 3.84766Q13.1641 3.84766 11.5283 3.2959Q9.89258 2.74414 8.53516 1.74805Q7.17773 0.751953 6.17676-0.610352Q5.17578-1.97266 4.62891-3.6084Q4.08203-5.24414 4.08203-7.05078Q4.08203-8.86719 4.62891-10.5029Q5.17578-12.1387 6.17188-13.501Q7.16797-14.8633 8.52539-15.8594Q9.88281-16.8555 11.5186-17.4023Q13.1543-17.9492 14.9609-17.9492Q16.7773-17.9492 18.4131-17.4023Q20.0488-16.8555 21.4111-15.8594Q22.7734-14.8633 23.7695-13.501Q24.7656-12.1387 25.3174-10.5029Q25.8691-8.86719 25.8691-7.05078Q25.8789-5.24414 25.332-3.6084Q24.7852-1.97266 23.7842-0.610352Q22.7832 0.751953 21.4209 1.74805Q20.0586 2.74414 18.4229 3.2959Q16.7871 3.84766 14.9707 3.84766ZM9.45312-7.04102Q9.45312-6.66016 9.71191-6.41113Q9.9707-6.16211 10.3711-6.16211L14.0625-6.16211L14.0625-2.46094Q14.0625-2.06055 14.3115-1.80664Q14.5605-1.55273 14.9414-1.55273Q15.3516-1.55273 15.6055-1.80664Q15.8594-2.06055 15.8594-2.46094L15.8594-6.16211L19.5605-6.16211Q19.9609-6.16211 20.2148-6.41113Q20.4688-6.66016 20.4688-7.04102Q20.4688-7.45117 20.2148-7.70508Q19.9609-7.95898 19.5605-7.95898L15.8594-7.95898L15.8594-11.6504Q15.8594-12.0605 15.6055-12.3145Q15.3516-12.5684 14.9414-12.5684Q14.5605-12.5684 14.3115-12.3096Q14.0625-12.0508 14.0625-11.6504L14.0625-7.95898L10.3711-7.95898Q9.96094-7.95898 9.70703-7.70508Q9.45312-7.45117 9.45312-7.04102Z"/>
  </g>
  <text style="stroke:none;fill:black;font-family:SF Pro,SF Pro Display,SF Pro Text,sans-serif;font-size:13;font-weight:bold;" transform="matrix(1 0 0 1 263 1953)">Design Variations</text>
  <text style="stroke:none;fill:black;font-family:SF Pro,SF Pro Display,SF Pro Text,sans-serif;font-size:13;" transform="matrix(1 0 0 1 263 1971)">Symbols are supported in up to nine weights and three scales.</text>
  <text style="stroke:none;fill:black;font-family:SF Pro,SF Pro Display,SF Pro Text,sans-serif;font-size:13;" transform="matrix(1 0 0 1 263 1989)">For optimal layout with text and other symbols, vertically align</text>
  <text style="stroke:none;fill:black;font-family:SF Pro,SF Pro Display,SF Pro Text,sans-serif;font-size:13;" transform="matrix(1 0 0 1 263 2007)">symbols with the adjacent text.</text>
  <line style="fill:none;stroke:#00AEEF;stroke-width:0.5;opacity:1.0;" x1="776" x2="776" y1="1919" y2="1933"/>
  <g transform="matrix(1 0 0 1 776 1933)">
   <path d="M3.31055 0.15625Q3.70117 0.15625 3.91602-0.00976562Q4.13086-0.175781 4.26758-0.585938L5.52734-4.0332L11.2891-4.0332L12.5488-0.585938Q12.6855-0.175781 12.9004-0.00976562Q13.1152 0.15625 13.4961 0.15625Q13.8867 0.15625 14.1162-0.0585938Q14.3457-0.273438 14.3457-0.644531Q14.3457-0.869141 14.2383-1.17188L9.6582-13.3691Q9.48242-13.8184 9.17969-14.043Q8.87695-14.2676 8.4082-14.2676Q7.5-14.2676 7.17773-13.3789L2.59766-1.16211Q2.49023-0.859375 2.49023-0.634766Q2.49023-0.263672 2.70996-0.0537109Q2.92969 0.15625 3.31055 0.15625ZM6.00586-5.51758L8.37891-12.0898L8.42773-12.0898L10.8008-5.51758Z"/>
  </g>
  <line style="fill:none;stroke:#00AEEF;stroke-width:0.5;opacity:1.0;" x1="793.197" x2="793.197" y1="1919" y2="1933"/>
  <text style="stroke:none;fill:black;font-family:SF Pro,SF Pro Display,SF Pro Text,sans-serif;font-size:13;font-weight:bold;" transform="matrix(1 0 0 1 776 1953)">Margins</text>
  <text style="stroke:none;fill:black;font-family:SF Pro,SF Pro Display,SF Pro Text,sans-serif;font-size:13;" transform="matrix(1 0 0 1 776 1971)">Leading and trailing margins on the left and right side of each symbol</text>
  <text style="stroke:none;fill:black;font-family:SF Pro,SF Pro Display,SF Pro Text,sans-serif;font-size:13;" transform="matrix(1 0 0 1 776 1989)">can be adjusted by modifying the x-location of the margin guidelines.</text>
  <text style="stroke:none;fill:black;font-family:SF Pro,SF Pro Display,SF Pro Text,sans-serif;font-size:13;" transform="matrix(1 0 0 1 776 2007)">Modifications are automatically applied proportionally to all</text>
  <text style="stroke:none;fill:black;font-family:SF Pro,SF Pro Display,SF Pro Text,sans-serif;font-size:13;" transform="matrix(1 0 0 1 776 2025)">scales and weights.</text>
  <g transform="matrix(1 0 0 1 1289 1933)">
   <path d="M2.8418 1.86523L4.54102 3.57422Q5.18555 4.22852 5.90332 4.17969Q6.62109 4.13086 7.31445 3.35938L18.0078-8.42773L17.041-9.4043L6.42578 2.27539Q6.16211 2.57812 5.89355 2.61719Q5.625 2.65625 5.27344 2.30469L4.10156 1.14258Q3.75 0.791016 3.79395 0.522461Q3.83789 0.253906 4.14062-0.0195312L15.6152-10.8203L14.6387-11.7871L3.04688-0.898438Q2.30469-0.214844 2.25098 0.498047Q2.19727 1.21094 2.8418 1.86523ZM9.25781-16.3281Q8.94531-16.0254 8.90625-15.6348Q8.86719-15.2441 9.04297-14.9512Q9.21875-14.6777 9.55566-14.541Q9.89258-14.4043 10.3809-14.5215Q11.4746-14.7754 12.5977-14.7314Q13.7207-14.6875 14.7949-13.9844L14.209-12.5293Q13.9551-11.9043 14.0674-11.4404Q14.1797-10.9766 14.5801-10.5664L16.875-8.25195Q17.2363-7.88086 17.5781-7.82227Q17.9199-7.76367 18.3398-7.8418L19.4043-8.03711L20.0684-7.36328L20.0293-6.80664Q20-6.43555 20.1221-6.12305Q20.2441-5.81055 20.6055-5.44922L21.3672-4.70703Q21.7285-4.3457 22.1533-4.33105Q22.5781-4.31641 22.9297-4.66797L25.8398-7.58789Q26.1914-7.93945 26.1816-8.35449Q26.1719-8.76953 25.8105-9.13086L25.0391-9.89258Q24.6875-10.2539 24.3799-10.3857Q24.0723-10.5176 23.7109-10.4883L23.1348-10.4395L22.4902-11.0742L22.7344-12.1973Q22.832-12.6172 22.6953-12.9834Q22.5586-13.3496 22.1191-13.7891L19.9219-15.9766Q18.6719-17.2168 17.2607-17.8369Q15.8496-18.457 14.4189-18.4814Q12.9883-18.5059 11.665-17.959Q10.3418-17.4121 9.25781-16.3281ZM10.752-15.957Q11.6602-16.6211 12.7002-16.9043Q13.7402-17.1875 14.8047-17.085Q15.8691-16.9824 16.8701-16.5137Q17.8711-16.0449 18.7012-15.2051L21.1328-12.793Q21.3086-12.6172 21.3525-12.4512Q21.3965-12.2852 21.3379-12.0312L21.0156-10.5469L22.5195-9.0625L23.5059-9.12109Q23.6914-9.13086 23.7891-9.09668Q23.8867-9.0625 24.0332-8.91602L24.6094-8.33984L22.168-5.89844L21.5918-6.47461Q21.4453-6.62109 21.4062-6.71875Q21.3672-6.81641 21.377-7.01172L21.4453-7.98828L19.9512-9.47266L18.4277-9.21875Q18.1836-9.16992 18.042-9.2041Q17.9004-9.23828 17.7148-9.41406L15.7129-11.416Q15.5176-11.5918 15.4932-11.7529Q15.4688-11.9141 15.5859-12.1875L16.4648-14.2773Q15.293-15.3711 13.8281-15.791Q12.3633-16.2109 10.8398-15.7617Q10.7227-15.7324 10.6885-15.8057Q10.6543-15.8789 10.752-15.957Z"/>
  </g>
  <text style="stroke:none;fill:black;font-family:SF Pro,SF Pro Display,SF Pro Text,sans-serif;font-size:13;font-weight:bold;" transform="matrix(1 0 0 1 1289 1953)">Exporting</text>
  <text style="stroke:none;fill:black;font-family:SF Pro,SF Pro Display,SF Pro Text,sans-serif;font-size:13;" transform="matrix(1 0 0 1 1289 1971)">Symbols should be outlined when exporting to ensure the</text>
  <text style="stroke:none;fill:black;font-family:SF Pro,SF Pro Display,SF Pro Text,sans-serif;font-size:13;" transform="matrix(1 0 0 1 1289 1989)">design is preserved when submitting to Xcode.</text>
  <text id="template-version" style="stroke:none;fill:black;font-family:SF Pro,SF Pro Display,SF Pro Text,sans-serif;font-size:13;text-anchor:end;" transform="matrix(1 0 0 1 3036 1933)">Template v.2.0</text>
  <text style="stroke:none;fill:black;font-family:SF Pro,SF Pro Display,SF Pro Text,sans-serif;font-size:13;text-anchor:end;" transform="matrix(1 0 0 1 3036 1951)">Requires Xcode 13 or greater</text>
  <text id="descriptive-name" style="stroke:none;fill:black;font-family:SF Pro,SF Pro Display,SF Pro Text,sans-serif;font-size:13;text-anchor:end;" transform="matrix(1 0 0 1 3036 1969)">Generated from shazam.fill</text>
  <text style="stroke:none;fill:black;font-family:SF Pro,SF Pro Display,SF Pro Text,sans-serif;font-size:13;text-anchor:end;" transform="matrix(1 0 0 1 3036 1987)">Typeset at 100 points</text>
  <text style="stroke:none;fill:black;font-family:SF Pro,SF Pro Display,SF Pro Text,sans-serif;font-size:13;" transform="matrix(1 0 0 1 263 726)">Small</text>
  <text style="stroke:none;fill:black;font-family:SF Pro,SF Pro Display,SF Pro Text,sans-serif;font-size:13;" transform="matrix(1 0 0 1 263 1156)">Medium</text>
  <text style="stroke:none;fill:black;font-family:SF Pro,SF Pro Display,SF Pro Text,sans-serif;font-size:13;" transform="matrix(1 0 0 1 263 1586)">Large</text>
 </g>
 <g id="Guides">
  <g id="H-reference" style="fill:#27AAE1;stroke:none;" transform="matrix(1 0 0 1 339 696)">
   <path d="M0.976562 0L3.66211 0L29.3457-67.1387L30.0293-67.1387L30.0293-70.459L28.125-70.459ZM11.6699-24.4629L46.9727-24.4629L46.2402-26.709L12.4512-26.709ZM55.127 0L57.7637 0L30.6152-70.459L29.4434-70.459L29.4434-67.1387Z"/>
  </g>
  <line id="Baseline-S" style="fill:none;stroke:#27AAE1;opacity:1;stroke-width:0.5;" x1="263" x2="3036" y1="696" y2="696"/>
  <line id="Capline-S" style="fill:none;stroke:#27AAE1;opacity:1;stroke-width:0.5;" x1="263" x2="3036" y1="625.541" y2="625.541"/>
  <g id="H-reference" style="fill:#27AAE1;stroke:none;" transform="matrix(1 0 0 1 339 1126)">
   <path d="M0.976562 0L3.66211 0L29.3457-67.1387L30.0293-67.1387L30.0293-70.459L28.125-70.459ZM11.6699-24.4629L46.9727-24.4629L46.2402-26.709L12.4512-26.709ZM55.127 0L57.7637 0L30.6152-70.459L29.4434-70.459L29.4434-67.1387Z"/>
  </g>
  <line id="Baseline-M" style="fill:none;stroke:#27AAE1;opacity:1;stroke-width:0.5;" x1="263" x2="3036" y1="1126" y2="1126"/>
  <line id="Capline-M" style="fill:none;stroke:#27AAE1;opacity:1;stroke-width:0.5;" x1="263" x2="3036" y1="1055.54" y2="1055.54"/>
  <g id="H-reference" style="fill:#27AAE1;stroke:none;" transform="matrix(1 0 0 1 339 1556)">
   <path d="M0.976562 0L3.66211 0L29.3457-67.1387L30.0293-67.1387L30.0293-70.459L28.125-70.459ZM11.6699-24.4629L46.9727-24.4629L46.2402-26.709L12.4512-26.709ZM55.127 0L57.7637 0L30.6152-70.459L29.4434-70.459L29.4434-67.1387Z"/>
  </g>
  <line id="Baseline-L" style="fill:none;stroke:#27AAE1;opacity:1;stroke-width:0.5;" x1="263" x2="3036" y1="1556" y2="1556"/>
  <line id="Capline-L" style="fill:none;stroke:#27AAE1;opacity:1;stroke-width:0.5;" x1="263" x2="3036" y1="1485.54" y2="1485.54"/>
  <line id="left-margin" style="fill:none;stroke:#00AEEF;stroke-width:0.5;opacity:1.0;" x1="1390.68" x2="1390.68" y1="1030.78" y2="1150.12"/>
  <line id="right-margin" style="fill:none;stroke:#00AEEF;stroke-width:0.5;opacity:1.0;" x1="1509.01" x2="1509.01" y1="1030.78" y2="1150.12"/>
 </g>
 <g id="Symbols">
  <g id="Black-L" transform="matrix(1 0 0 1 2853.37 1556)">
   <path d="M12.0677-34.5403C12.0677 3.06783 42.6557 33.4262 80.0341 33.4262C117.643 33.4262 148 2.84149 148-34.5403C148-72.1483 117.417-102.507 80.0341-102.507C42.6557-102.733 12.0677-72.1483 12.0677-34.5403ZM114.697-9.05274C108.354-2.14272 97.0288 8.73191 96.5728 9.18501C95.1022 10.5443 93.1755 11.3372 91.2488 11.3372C89.2113 11.3372 87.1738 10.5443 85.699 8.95825C82.7536 5.89987 82.8686 1.02904 85.9249-1.91638C86.04-2.02976 97.3656-12.791 103.256-19.3609C106.091-22.4197 107.451-26.3843 107.221-30.4623C106.995-34.7666 104.842-38.8446 101.33-41.9034C96.6878-45.868 87.5106-46.7742 81.7348-41.6766C78.3376-38.6182 74.1432-34.0871 74.1432-34.0871C71.3129-30.9154 66.4408-30.802 63.2694-33.634C60.0981-36.4661 59.9873-41.3369 62.8176-44.5087C63.0435-44.735 67.4638-49.6063 71.5388-53.1177C82.4126-62.8594 100.426-63.0862 111.415-53.5709C118.094-47.7938 122.063-39.9776 122.63-31.4819C123.192-23.0991 120.362-15.1699 114.697-9.05274ZM68.2566-8.48626C61.1168-8.48626 54.0964-10.8652 48.5466-15.5097C41.8629-21.2867 37.8945-29.1029 37.3318-37.5986C36.8757-45.868 39.5952-53.7972 45.2601-60.0277C51.6028-66.9374 62.8176-77.812 63.3845-78.2651C66.4408-81.2105 71.3129-81.0971 74.2583-78.0388C77.2037-74.9804 77.0886-70.1091 74.0324-67.1641C73.9173-67.0508 62.5917-56.2895 56.7008-49.7192C53.8663-46.6608 52.5108-42.6962 52.7367-38.6182C52.9626-34.3135 55.1152-30.2355 58.6275-27.1771C63.2694-23.0991 72.4467-22.3063 78.2225-27.4039C81.6197-30.4623 85.8141-34.9934 85.8141-34.9934C88.6444-38.1651 93.5165-38.2785 96.6878-35.4465C99.8592-32.6144 99.97-27.7436 97.1397-24.5718C96.9138-24.3451 92.4978-19.4743 88.4185-15.9628C82.9795-10.9786 75.6181-8.48626 68.2566-8.48626Z"/>
  </g>
  <g id="Heavy-L" transform="matrix(1 0 0 1 2557.59 1556)">
   <path d="M12.058-34.5561C12.058 2.53529 42.2272 32.4765 79.0906 32.4765C116.183 32.4765 146.123 2.31218 146.123-34.5561C146.123-71.6474 115.96-101.589 79.0906-101.589C42.2272-101.812 12.058-71.6474 12.058-34.5561ZM113.277-9.41871C107.022-2.60359 95.8533 8.12163 95.4021 8.56847C93.9527 9.90912 92.0521 10.6911 90.1514 10.6911C88.1426 10.6911 86.1337 9.90912 84.6781 8.34474C81.7731 5.32846 81.8874 0.524558 84.9007-2.38047C85.015-2.49233 96.1841-13.1057 101.994-19.5852C104.791-22.6021 106.132-26.5122 105.904-30.5342C105.681-34.7792 103.558-38.8012 100.094-41.8181C95.5164-45.7282 86.4644-46.622 80.7687-41.5944C77.4186-38.5781 73.2805-34.1091 73.2805-34.1091C70.4898-30.981 65.6841-30.8691 62.5565-33.6623C59.4289-36.4555 59.3207-41.2594 62.1114-44.3875C62.3339-44.6106 66.6946-49.4151 70.7123-52.8783C81.4363-62.4861 99.2034-62.7098 110.042-53.3252C116.628-47.6275 120.543-39.9187 121.103-31.5397C121.656-23.2721 118.865-15.4519 113.277-9.41871ZM67.4765-8.86C60.4333-8.86 53.5106-11.2062 48.0374-15.787C41.4454-21.4846 37.5298-29.1935 36.9766-37.5724C36.5253-45.7282 39.2079-53.5484 44.7954-59.6934C51.0506-66.508 62.1114-77.2332 62.6708-77.6801C65.6841-80.5851 70.4898-80.4733 73.3948-77.457C76.2999-74.4406 76.1856-69.6362 73.1723-66.7318C73.0579-66.6199 61.8889-56.0065 56.0788-49.5264C53.282-46.5101 51.9468-42.6 52.1694-38.5781C52.3919-34.3324 54.5151-30.3104 57.9794-27.294C62.5565-23.2721 71.6084-22.4902 77.3043-27.5178C80.6544-30.5342 84.7925-35.003 84.7925-35.003C87.5832-38.1311 92.3889-38.243 95.5164-35.4498C98.6441-32.6566 98.7523-27.8529 95.9616-24.7246C95.739-24.5009 91.3845-19.6971 87.3607-16.2338C81.9956-11.3181 74.7361-8.86 67.4765-8.86Z"/>
  </g>
  <g id="Bold-L" transform="matrix(1 0 0 1 2262.06 1556)">
   <path d="M12.0499-34.5674C12.0499 1.87432 41.6917 31.2909 77.9082 31.2909C114.351 31.2909 143.767 1.65522 143.767-34.5674C143.767-71.0088 114.132-100.426 77.9082-100.426C41.6917-100.645 12.0499-71.0088 12.0499-34.5674ZM111.496-9.87025C105.351-3.17449 94.3783 7.36284 93.9341 7.8018C92.5108 9.11896 90.6432 9.88724 88.7753 9.88724C86.8024 9.88724 84.8291 9.11896 83.3983 7.58194C80.5441 4.61858 80.657-0.101199 83.6166-2.95539C83.7296-3.06532 94.7024-13.4927 100.411-19.8587C103.16-22.8228 104.477-26.6644 104.252-30.6159C104.033-34.7865 101.947-38.738 98.5432-41.7021C94.047-45.5437 85.1529-46.4219 79.5575-41.4822C76.2666-38.5189 72.1998-34.1281 72.1998-34.1281C69.4586-31.0548 64.7366-30.9449 61.664-33.6892C58.5912-36.4334 58.4858-41.1532 61.2271-44.2265C61.4454-44.4456 65.7308-49.1661 69.677-52.5684C80.2128-62.008 97.6695-62.2279 108.318-53.0077C114.787-47.4097 118.636-39.836 119.185-31.6037C119.728-23.4809 116.987-15.7977 111.496-9.87025ZM66.4988-9.32136C59.5778-9.32136 52.7775-11.6264 47.4004-16.127C40.9237-21.7247 37.0753-29.2987 36.5333-37.5307C36.0887-45.5437 38.7246-53.2268 44.2146-59.2642C50.3599-65.9595 61.2271-76.4968 61.777-76.9358C64.7366-79.79 69.4586-79.68 72.3128-76.7167C75.167-73.753 75.054-69.0328 72.0945-66.1793C71.9812-66.0694 61.0087-55.642 55.3003-49.2753C52.5515-46.3119 51.2412-42.4704 51.4595-38.5189C51.6779-34.3475 53.7641-30.396 57.1679-27.4324C61.664-23.4809 70.5579-22.7129 76.1536-27.6522C79.4445-30.6159 83.5112-35.0063 83.5112-35.0063C86.2525-38.0796 90.9745-38.1895 94.047-35.4453C97.1199-32.701 97.2252-27.9815 94.484-24.908C94.2654-24.6881 89.9879-19.9686 86.0341-16.566C80.7624-11.7363 73.6307-9.32136 66.4988-9.32136Z"/>
  </g>
  <g id="Semibold-L" transform="matrix(1 0 0 1 1966.16 1556)">
   <path d="M12.0444-34.5751C12.0444 1.41864 41.3225 30.4736 77.0931 30.4736C113.088 30.4736 142.142 1.20231 142.142-34.5751C142.142-70.5685 112.872-99.6239 77.0931-99.6239C41.3225-99.8402 12.0444-70.5685 12.0444-34.5751ZM110.268-10.1815C104.199-3.56806 93.3615 6.83973 92.922 7.27326C91.5167 8.57423 89.6719 9.33309 87.8267 9.33309C85.8784 9.33309 83.9298 8.57423 82.5159 7.05607C79.6968 4.12919 79.8088-0.532592 82.7314-3.35173C82.8434-3.46033 93.6809-13.7595 99.3191-20.0472C102.035-22.975 103.337-26.7693 103.113-30.6722C102.897-34.7915 100.836-38.6944 97.4743-41.6221C93.034-45.4164 84.2487-46.2839 78.7225-41.4049C75.4724-38.4781 71.4548-34.1412 71.4548-34.1412C68.7477-31.1057 64.0834-30.9971 61.0488-33.7077C58.0137-36.4182 57.9103-41.08 60.6174-44.1155C60.8329-44.3318 65.0663-48.9944 68.9632-52.3548C79.3693-61.6784 96.612-61.8956 107.13-52.7888C113.519-47.2595 117.321-39.779 117.864-31.6478C118.399-23.6248 115.691-16.0361 110.268-10.1815ZM65.8247-9.63942C58.9881-9.63942 52.272-11.916 46.9612-16.3615C40.5641-21.8903 36.762-29.3712 36.2277-37.502C35.7877-45.4164 38.3914-53.0051 43.8142-58.9683C49.8838-65.5813 60.6174-75.9891 61.1608-76.4227C64.0834-79.2418 68.7477-79.1332 71.5669-76.2063C74.386-73.279 74.274-68.6168 71.3514-65.7985C71.239-65.6899 60.4019-55.3907 54.7636-49.1022C52.0479-46.1753 50.7547-42.381 50.9702-38.4781C51.1856-34.3579 53.2463-30.455 56.6085-27.5277C61.0488-23.6248 69.8337-22.8664 75.3603-27.7449C78.6104-30.6722 82.628-35.0087 82.628-35.0087C85.3351-38.0441 89.9994-38.1527 93.034-35.4422C96.0691-32.7316 96.1725-28.0703 93.4654-25.0344C93.2495-24.8172 89.0251-20.1558 85.1196-16.795C79.9123-12.0246 72.8687-9.63942 65.8247-9.63942Z"/>
  </g>
  <g id="Medium-L" transform="matrix(1 0 0 1 1670.07 1556)">
   <path d="M12.0402-34.581C12.0402 1.07313 41.0426 29.8539 76.4751 29.8539C112.13 29.8539 140.91 0.858902 140.91-34.581C140.91-70.2347 111.916-99.0159 76.4751-99.0159C41.0426-99.2301 12.0402-70.2347 12.0402-34.581ZM109.337-10.4176C103.325-3.86649 92.5906 6.4431 92.1546 6.8725C90.763 8.16119 88.9354 8.91291 87.1074 8.91291C85.1779 8.91291 83.2479 8.16119 81.8469 6.65733C79.0543 3.75811 79.1657-0.859692 82.0602-3.65226C82.1715-3.75984 92.9063-13.9618 98.4914-20.1902C101.182-23.0903 102.472-26.8488 102.249-30.7149C102.036-34.7952 99.9944-38.6613 96.6639-41.5615C92.2659-45.32 83.5631-46.1793 78.0893-41.3463C74.8702-38.4471 70.8899-34.1511 70.8899-34.1511C68.2087-31.1443 63.5881-31.0367 60.5822-33.7217C57.5759-36.4067 57.4739-41.0245 60.1551-44.0313C60.3684-44.2455 64.5625-48.8643 68.422-52.1929C78.7297-61.4285 95.8102-61.6437 106.229-52.6228C112.557-47.1457 116.324-39.7358 116.862-31.6813C117.391-23.7339 114.709-16.2169 109.337-10.4176ZM65.3137-9.88058C58.5409-9.88058 51.8888-12.1357 46.6283-16.5392C40.2914-22.0158 36.5245-29.4262 35.9959-37.4802C35.5595-45.32 38.1387-52.837 43.5106-58.744C49.5228-65.2946 60.1551-75.6042 60.6935-76.0336C63.5881-78.8261 68.2087-78.7186 71.0013-75.8193C73.7938-72.9196 73.6825-68.3014 70.788-65.5098C70.6761-65.4022 59.9418-55.2002 54.3567-48.9709C51.6661-46.0717 50.3858-42.3132 50.5991-38.4471C50.8124-34.3658 52.8538-30.4997 56.1843-27.6C60.5822-23.7339 69.2845-22.9827 74.7588-27.8152C77.978-30.7149 81.9582-35.0104 81.9582-35.0104C84.6395-38.0172 89.2601-38.1248 92.2659-35.4398C95.2723-32.7548 95.3743-28.1375 92.693-25.1302C92.4792-24.9151 88.2951-20.2977 84.4262-16.9686C79.2676-12.2432 72.2909-9.88058 65.3137-9.88058Z"/>
  </g>
  <g id="Regular-L" transform="matrix(1 0 0 1 1374.16 1556)">
   <path d="M12.0346-34.5887C12.0346 0.622469 40.6775 29.0456 75.6689 29.0456C110.881 29.0456 139.303 0.410975 139.303-34.5887C139.303-69.7992 110.67-98.2229 75.6689-98.2229C40.6775-98.4344 12.0346-69.7992 12.0346-34.5887ZM108.123-10.7254C102.186-4.25574 91.5849 5.92574 91.1536 6.34977C89.7799 7.62245 87.9748 8.36484 86.1692 8.36484C84.2641 8.36484 82.3584 7.62245 80.9742 6.13723C78.2163 3.2741 78.3268-1.28634 81.1847-4.04425C81.2951-4.15051 91.896-14.2257 97.4118-20.3766C100.07-23.2408 101.343-26.9526 101.123-30.7706C100.912-34.8002 98.896-38.6182 95.6068-41.4824C91.2641-45.1942 82.6689-46.0428 77.2635-41.2699C74.0847-38.4067 70.1531-34.1641 70.1531-34.1641C67.5056-31.1947 62.942-31.0884 59.9737-33.74C57.0047-36.3917 56.9047-40.9521 59.5522-43.9215C59.7626-44.133 63.9053-48.6945 67.7161-51.9816C77.8955-61.1025 94.7644-61.3151 105.054-52.4063C111.302-46.9972 115.023-39.6794 115.554-31.7249C116.076-23.8763 113.429-16.4527 108.123-10.7254ZM64.6471-10.1951C57.9576-10.1951 51.3889-12.4221 46.194-16.7711C39.9358-22.1796 36.2146-29.4979 35.6937-37.4518C35.2618-45.1942 37.8092-52.6178 43.1146-58.4513C49.0519-64.9206 59.5522-75.1021 60.0841-75.5261C62.942-78.284 67.5056-78.1777 70.2635-75.3146C73.0214-72.4509 72.911-67.89 70.0531-65.1331C69.942-65.0269 59.3417-54.9516 53.8259-48.7997C51.168-45.9366 49.9047-42.2248 50.1152-38.4067C50.3256-34.3762 52.3417-30.5581 55.631-27.6944C59.9737-23.8763 68.5683-23.1345 73.9743-27.9069C77.1531-30.7706 81.0847-35.0127 81.0847-35.0127C83.7321-37.9821 88.2957-38.0884 91.2641-35.4367C94.233-32.7851 94.3331-28.2253 91.6856-25.2553C91.4745-25.0427 87.3429-20.4829 83.5217-17.1951C78.4268-12.5284 71.5372-10.1951 64.6471-10.1951Z"/>
  </g>
  <g id="Light-L" transform="matrix(1 0 0 1 1078.37 1556)">
   <path d="M12.054-34.5425C12.054 0.157192 40.2774 28.1671 74.7636 28.1671C109.464 28.1671 137.473-0.0513592 137.473-34.5425C137.473-69.2411 109.255-97.2521 74.7636-97.2521C40.2774-97.4606 12.054-69.2411 12.054-34.5425ZM106.745-11.026C100.894-4.65041 90.4451 5.38313 90.0231 5.80085C88.6674 7.05504 86.8896 7.78693 85.1109 7.78693C83.2323 7.78693 81.3526 7.05504 79.9908 5.59168C77.2732 2.77016 77.3803-1.7243 80.1987-4.44186C80.3058-4.54644 90.755-14.4754 96.1901-20.5372C98.8067-23.3593 100.062-27.0173 99.8474-30.7799C99.6395-34.751 97.6528-38.5136 94.4123-41.3357C90.1301-44.9937 81.6614-45.8302 76.3334-41.1266C73.2-38.305 69.3285-34.1237 69.3285-34.1237C66.718-31.1976 62.2217-31.093 59.2962-33.706C56.3697-36.319 56.2688-40.8134 58.8793-43.7395C59.0872-43.9481 63.1677-48.4432 66.9259-51.6824C76.9582-60.6713 93.5796-60.8805 103.719-52.1012C109.88-46.7702 113.543-39.5592 114.066-31.7199C114.584-23.9856 111.973-16.6696 106.745-11.026ZM63.8985-10.5036C57.3095-10.5036 50.8337-12.6979 45.7136-16.9838C39.5466-22.3137 35.883-29.5257 35.3663-37.364C34.9432-44.9937 37.4528-52.3097 42.68-58.058C48.532-64.4339 58.8793-74.4674 59.4032-74.8852C62.2217-77.6027 66.718-77.4981 69.4355-74.6766C72.1531-71.8541 72.046-67.36 69.2276-64.6431C69.1195-64.5385 58.6713-54.6095 53.2362-48.5471C50.6196-45.7256 49.3709-42.0676 49.5789-38.305C49.7868-34.3333 51.7735-30.5707 55.014-27.7482C59.2962-23.9856 67.7638-23.2547 73.0929-27.9573C76.2263-30.7799 80.0978-34.9602 80.0978-34.9602C82.7083-37.8863 87.2046-37.9909 90.1301-35.3779C93.0566-32.7649 93.1575-28.2715 90.547-25.3444C90.3381-25.1352 86.2648-20.6418 82.5004-17.4015C77.4811-12.8025 70.6903-10.5036 63.8985-10.5036Z"/>
  </g>
  <g id="Thin-L" transform="matrix(1 0 0 1 782.885 1556)">
   <path d="M12.0795-34.4813C12.0795-0.458173 39.7482 27.0054 73.5663 27.0054C107.589 27.0054 135.053-0.662834 135.053-34.4813C135.053-68.5029 107.383-95.968 73.5663-95.968C39.7482-96.1727 12.0795-68.5029 12.0795-34.4813ZM104.924-11.4234C99.1861-5.17239 88.9376 4.66549 88.5278 5.07487C87.196 6.3046 85.4544 7.02259 83.7112 7.02259C81.8676 7.02259 80.0224 6.3046 78.69 4.87015C76.0258 2.10366 76.1285-2.30354 78.8946-4.96773C78.9972-5.07009 89.2458-14.8056 94.5742-20.7495C97.1364-23.5161 98.3661-27.1029 98.1609-30.7921C97.9563-34.686 96.0085-38.3752 92.8326-41.1418C88.6304-44.7286 80.329-45.549 75.1033-40.937C72.0299-38.1705 68.2379-34.0704 68.2379-34.0704C65.6763-31.2015 61.2689-31.0992 58.4001-33.661C55.5297-36.2228 55.4278-40.63 57.9893-43.4989C58.1939-43.7035 62.1921-48.1108 65.8809-51.2867C75.7186-60.101 92.0126-60.3058 101.953-51.6976C107.999-46.4701 111.586-39.4003 112.098-31.7133C112.611-24.1301 110.049-16.9565 104.924-11.4234ZM62.9085-10.9117C56.4523-10.9117 50.0994-13.0625 45.0782-17.2651C39.0318-22.491 35.4444-29.5624 34.9332-37.2478C34.5218-44.7286 36.9814-51.9023 42.1052-57.5377C47.8444-63.7902 57.9893-73.6281 58.5027-74.0375C61.2689-76.7017 65.6763-76.5993 68.3405-73.8328C71.0047-71.0648 70.9021-66.6591 68.1359-63.995C68.0317-63.8926 57.7847-54.1571 52.4564-48.2131C49.8942-45.4466 48.665-41.8597 48.8696-38.1705C49.0742-34.2766 51.022-30.5874 54.198-27.8193C58.4001-24.1301 66.6999-23.4137 71.9273-28.0241C75.0006-30.7921 78.7926-34.8907 78.7926-34.8907C81.3542-37.7596 85.7616-37.8619 88.6304-35.3001C91.5008-32.7383 91.6028-28.3327 89.0412-25.4622C88.835-25.2575 84.839-20.8519 81.1496-17.6744C76.2304-13.1649 69.5703-10.9117 62.9085-10.9117Z"/>
  </g>
  <g id="Ultralight-L" transform="matrix(1 0 0 1 486.799 1556)">
   <path d="M12.0926-34.45C12.0926-0.77336 39.4772 26.4103 72.953 26.4103C106.629 26.4103 133.813-0.976028 133.813-34.45C133.813-68.1248 106.425-95.3104 72.953-95.3104C39.4772-95.513 12.0926-68.1248 12.0926-34.45ZM103.991-11.627C98.3112-5.43974 88.1655 4.29791 87.7619 4.70302C86.4424 5.92023 84.7193 6.6311 82.9943 6.6311C81.1686 6.6311 79.3411 5.92023 78.0238 4.50058C75.3869 1.76228 75.4873-2.60022 78.2267-5.23707C78.327-5.3383 88.4728-14.9747 93.7465-20.8583C96.2808-23.5964 97.4978-27.1468 97.2971-30.7984C97.0942-34.6527 95.1664-38.3043 92.0234-41.0424C87.8622-44.5928 79.6466-45.4049 74.4732-40.84C71.4305-38.1017 67.6793-34.0431 67.6793-34.0431C65.1427-31.2035 60.7809-31.1023 57.9412-33.6379C55.0995-36.1736 54.997-40.5361 57.5335-43.3756C57.7364-43.5783 61.6924-47.9405 65.3456-51.0839C75.0837-59.8089 91.21-60.0114 101.048-51.4909C107.035-46.3163 110.584-39.3189 111.09-31.7099C111.6-24.2042 109.063-17.1034 103.991-11.627ZM62.4014-11.1207C56.0133-11.1207 49.7233-13.2493 44.7528-17.4091C38.7682-22.5819 35.2198-29.5812 34.7115-37.1883C34.306-44.5928 36.74-51.6936 41.8108-57.2712C47.4922-63.4606 57.5335-73.1982 58.0415-73.6033C60.7809-76.2402 65.1427-76.139 67.7796-73.4007C70.4165-70.6605 70.3161-66.3001 67.5767-63.663C67.4745-63.5618 57.3306-53.9253 52.0569-48.042C49.5226-45.3037 48.3034-41.7533 48.5063-38.1017C48.7092-34.2476 50.637-30.596 53.78-27.8558C57.9412-24.2042 66.155-23.4952 71.3302-28.0582C74.3729-30.7984 78.1241-34.8551 78.1241-34.8551C80.6607-37.6947 85.0225-37.7959 87.8622-35.2603C90.7039-32.7246 90.8064-28.364 88.2699-25.5226C88.0651-25.3202 84.1087-20.9595 80.4578-17.8143C75.5898-13.3505 68.9966-11.1207 62.4014-11.1207Z"/>
  </g>
  <g id="Black-M" transform="matrix(1 0 0 1 2870.71 1126)">
   <path d="M9.36022-34.6757C9.36022-5.16442 33.3612 18.658 62.6939 18.658C92.2054 18.658 116.028-5.34214 116.028-34.6757C116.028-64.1871 92.0278-88.0095 62.6939-88.0095C33.3612-88.1872 9.36022-64.1871 9.36022-34.6757ZM89.8942-14.6756C84.9166-9.25328 76.0282-0.719887 75.6719-0.364326C74.5168 0.702348 73.0055 1.32454 71.4941 1.32454C69.8945 1.32454 68.2948 0.702348 67.1387-0.542163C64.8275-2.94215 64.9169-6.76437 67.3163-9.07556C67.4057-9.16448 76.2941-17.609 80.9164-22.7645C83.1394-25.1646 84.2062-28.2757 84.0274-31.4757C83.8498-34.8535 82.1608-38.0535 79.405-40.4536C75.7612-43.5647 68.5607-44.2758 64.0277-40.2758C61.3613-37.8758 58.0716-34.3202 58.0716-34.3202C55.8497-31.8313 52.0272-31.7424 49.5384-33.9646C47.0496-36.1869 46.9614-40.0091 49.1832-42.498C49.3608-42.6757 52.8281-46.4981 56.0274-49.2536C64.5605-56.8981 78.6946-57.0759 87.3172-49.6092C92.5606-45.0758 95.6727-38.9424 96.1173-32.2758C96.5608-25.6979 94.3389-19.4757 89.8942-14.6756ZM53.4503-14.2311C47.8494-14.2311 42.339-16.0978 37.9836-19.7423C32.739-24.2756 29.6269-30.409 29.1835-37.0757C28.8271-43.5647 30.9607-49.7869 35.4054-54.6759C40.383-60.0981 49.1832-68.6315 49.6278-68.987C52.0272-71.2982 55.8497-71.2093 58.1609-68.8093C60.4721-66.4093 60.3827-62.587 57.9833-60.2759C57.894-60.187 49.0056-51.7425 44.3832-46.5869C42.1603-44.1869 41.0946-41.0758 41.2722-37.8758C41.4498-34.4979 43.1388-31.2979 45.8946-28.8979C49.5384-25.6979 56.7389-25.0757 61.2719-29.0757C63.9383-31.4757 67.2281-35.0313 67.2281-35.0313C69.4499-37.5202 73.2724-37.6091 75.7612-35.3869C78.25-33.1646 78.3383-29.3424 76.1164-26.8535C75.9388-26.6756 72.4726-22.8534 69.2723-20.0979C65.0051-16.1867 59.2277-14.2311 53.4503-14.2311Z"/>
  </g>
  <g id="Heavy-M" transform="matrix(1 0 0 1 2574.84 1126)">
   <path d="M9.34901-34.6955C9.34901-5.64209 32.9792 17.8106 61.8551 17.8106C90.9089 17.8106 114.361-5.81694 114.361-34.6955C114.361-63.7489 90.7343-87.2016 61.8551-87.2016C32.9792-87.3765 9.34901-63.7489 9.34901-34.6955ZM88.6334-15.0056C83.7335-9.6674 74.9842-1.26642 74.6318-0.916398C73.4957 0.133725 72.0073 0.746234 70.5189 0.746234C68.9449 0.746234 67.3709 0.133725 66.2315-1.09158C63.9561-3.45426 64.045-7.21713 66.406-9.49256C66.4949-9.58015 75.2443-17.8935 79.7952-22.969C81.985-25.332 83.0354-28.3948 82.8576-31.5451C82.6831-34.8703 81.0201-38.0207 78.3068-40.3837C74.7207-43.4465 67.631-44.1466 63.169-40.2086C60.5446-37.8459 57.3043-34.3454 57.3043-34.3454C55.1178-31.8952 51.3539-31.8076 48.904-33.9954C46.454-36.1832 46.3684-39.9461 48.5549-42.3964C48.7294-42.5712 52.1443-46.3344 55.2923-49.0471C63.6926-56.5729 77.6087-56.7481 86.0979-49.3972C91.2579-44.9342 94.3237-38.896 94.7616-32.3328C95.1963-25.8569 93.0098-19.7313 88.6334-15.0056ZM52.7567-14.568C47.241-14.568 41.8176-16.4058 37.5301-19.9938C32.3668-24.4567 29.301-30.495 28.8664-37.0582C28.514-43.4465 30.6149-49.5721 34.9912-54.3853C39.8912-59.7233 48.5549-68.1243 48.9929-68.4743C51.3539-70.7497 55.1178-70.6621 57.3932-68.2994C59.6686-65.9367 59.5797-62.1735 57.2187-59.8984C57.1297-59.8109 48.3804-51.4975 43.8295-46.4217C41.6397-44.059 40.5926-40.9962 40.7671-37.8459C40.9416-34.5203 42.6046-31.37 45.3179-29.0072C48.904-25.8569 55.9937-25.2444 60.4557-29.1824C63.0801-31.5451 66.3204-35.0455 66.3204-35.0455C68.5069-37.4958 72.2708-37.5834 74.7207-35.3956C77.1707-33.2077 77.2563-29.4449 75.0698-26.9946C74.8952-26.8194 71.4838-23.0566 68.3324-20.3438C64.1306-16.4933 58.4437-14.568 52.7567-14.568Z"/>
  </g>
  <g id="Bold-M" transform="matrix(1 0 0 1 2279.05 1126)">
   <path d="M9.33647-34.7176C9.33647-6.17644 32.5519 16.8628 60.9168 16.8628C89.4586 16.8628 112.497-6.34806 112.497-34.7176C112.497-63.2587 89.2874-86.298 60.9168-86.298C32.5519-86.4696 9.33647-63.2587 9.33647-34.7176ZM87.2231-15.3748C82.4101-10.1307 73.8162-1.8778 73.4683-1.53397C72.3535-0.502362 70.8908 0.0993115 69.428 0.0993115C67.8827 0.0993115 66.3372-0.502362 65.2166-1.70617C62.9812-4.02712 63.0696-7.72361 65.3877-9.95903C65.4761-10.0451 74.07-18.2119 78.5409-23.1977C80.6936-25.5192 81.7258-28.528 81.549-31.6228C81.3779-34.8892 79.7441-37.9841 77.0782-40.3056C73.5568-43.3143 66.5909-44.0021 62.2085-40.1334C59.631-37.8124 56.446-34.3737 56.446-34.3737C54.299-31.9666 50.6008-31.8805 48.1943-34.0298C45.7877-36.1792 45.7051-39.8756 47.8521-42.2827C48.0231-42.4543 51.3793-46.1514 54.47-48.8162C62.7218-56.2092 76.3938-56.3814 84.734-49.1601C89.8007-44.7758 92.8146-38.844 93.2451-32.3966C93.67-26.0347 91.523-20.0173 87.2231-15.3748ZM51.9808-14.9449C46.5604-14.9449 41.2342-16.7502 37.0229-20.2751C31.9504-24.6593 28.9364-30.5912 28.5117-37.0386C28.1637-43.3143 30.2281-49.3317 34.5279-54.0603C39.3409-59.304 47.8521-67.5568 48.2827-67.9007C50.6008-70.1361 54.299-70.05 56.5344-67.729C58.7698-65.408 58.6814-61.711 56.3634-59.4762C56.2748-59.3901 47.681-51.2233 43.2102-46.2369C41.0574-43.916 40.031-40.9073 40.2021-37.8124C40.3731-34.5454 42.007-31.4506 44.6729-29.1295C48.1943-26.0347 55.16-25.4331 59.5426-29.3017C62.1201-31.6228 65.3051-35.0614 65.3051-35.0614C67.4521-37.4685 71.1503-37.5546 73.5568-35.4053C75.9633-33.256 76.046-29.5596 73.899-27.1524C73.7278-26.9802 70.3776-23.2838 67.281-20.6189C63.1523-16.8363 57.5666-14.9449 51.9808-14.9449Z"/>
  </g>
  <g id="Semibold-M" transform="matrix(1 0 0 1 1982.98 1126)">
   <path d="M9.32783-34.7329C9.32783-6.54481 32.2573 16.2093 60.27 16.2093C88.4588 16.2093 111.212-6.71422 111.212-34.7329C111.212-62.9207 88.29-85.675 60.27-85.675C32.2573-85.8444 9.32783-62.9207 9.32783-34.7329ZM86.2508-15.6293C81.4978-10.45 73.0111-2.29928 72.6663-1.95972C71.5661-0.940876 70.1211-0.346673 68.676-0.346673C67.1504-0.346673 65.6247-0.940876 64.517-2.12987C62.3092-4.42205 62.3972-8.07278 64.6857-10.2806C64.7737-10.3657 73.2605-18.4314 77.6761-23.3554C79.8034-25.6483 80.823-28.6198 80.6468-31.6763C80.4782-34.9023 78.8644-37.9588 76.2312-40.2517C72.7543-43.2232 65.8739-43.9024 61.5463-40.0816C59.0011-37.7894 55.8543-34.3931 55.8543-34.3931C53.7345-32.0159 50.0816-31.9308 47.7051-34.0536C45.3284-36.1763 45.2478-39.8271 47.3676-42.2043C47.5362-42.3737 50.8519-46.0252 53.9032-48.6569C62.0524-55.9584 75.5564-56.1286 83.7937-48.9967C88.7961-44.6666 91.7743-38.8082 92.1997-32.4405C92.6177-26.1573 90.498-20.2144 86.2508-15.6293ZM51.4459-15.2047C46.0913-15.2047 40.8321-16.9877 36.6732-20.469C31.6633-24.7989 28.6851-30.6575 28.2672-37.025C27.9222-43.2232 29.9614-49.1661 34.2084-53.8362C38.9616-59.0149 47.3676-67.1657 47.7931-67.5052C50.0816-69.7131 53.7345-69.628 55.9424-67.3358C58.1502-65.0435 58.0621-61.3922 55.7737-59.1851C55.6855-59.1 47.1989-51.0343 42.7832-46.1095C40.656-43.8174 39.6439-40.8459 39.8125-37.7894C39.9812-34.5627 41.595-31.5062 44.2282-29.2138C47.7051-26.1573 54.5853-25.5633 58.9131-29.384C61.4582-31.6763 64.6051-35.0724 64.6051-35.0724C66.7248-37.4497 70.3778-37.5347 72.7543-35.412C75.131-33.2892 75.2116-29.6386 73.0918-27.2612C72.923-27.0911 69.615-23.4405 66.5562-20.8086C62.4778-17.0728 56.962-15.2047 51.4459-15.2047Z"/>
  </g>
  <g id="Medium-M" transform="matrix(1 0 0 1 1686.76 1126)">
   <path d="M9.32128-34.7444C9.32128-6.82413 32.034 15.7138 59.7795 15.7138C87.7007 15.7138 110.238-6.99185 110.238-34.7444C110.238-62.6645 87.5336-85.2026 59.7795-85.2026C32.034-85.3704 9.32128-62.6645 9.32128-34.7444ZM85.5135-15.8223C80.806-10.6922 72.4005-2.61887 72.0581-2.28254C70.969-1.27338 69.5375-0.684837 68.1057-0.684837C66.5951-0.684837 65.0844-1.27338 63.9865-2.45114C61.7996-4.7215 61.8874-8.33753 64.1534-10.5245C64.2412-10.6088 72.6466-18.5978 77.0205-23.475C79.1284-25.7462 80.1384-28.6894 79.9628-31.7169C79.796-34.9121 78.1974-37.9396 75.5889-40.2109C72.1459-43.1541 65.3303-43.8269 61.0442-40.0423C58.5236-37.7719 55.4056-34.4079 55.4056-34.4079C53.3065-32.0532 49.6879-31.9689 47.3341-34.0716C44.9801-36.1742 44.9011-39.7902 47.0002-42.1449C47.167-42.3126 50.452-45.9295 53.4734-48.5362C61.5449-55.7683 74.9214-55.9369 83.0807-48.8727C88.0344-44.5838 90.9854-38.7811 91.4069-32.4739C91.8199-26.2503 89.7207-20.3639 85.5135-15.8223ZM51.0404-15.4017C45.7355-15.4017 40.5272-17.1678 36.408-20.6161C31.4456-24.9048 28.4945-30.7078 28.0818-37.0148C27.7391-43.1541 29.7592-49.0404 33.9662-53.6663C38.674-58.7958 47.0002-66.8691 47.4219-67.2054C49.6879-69.3923 53.3065-69.308 55.4935-67.0377C57.6804-64.7671 57.5926-61.1504 55.3266-58.9644C55.2386-58.8801 46.8333-50.891 42.4595-46.0129C40.3516-43.7426 39.3503-40.7994 39.5172-37.7719C39.684-34.5758 41.2826-31.5483 43.891-29.2778C47.3341-26.2503 54.1495-25.6619 58.4358-29.4464C60.9564-31.7169 64.0743-35.0807 64.0743-35.0807C66.1734-37.4354 69.7921-37.5197 72.1459-35.4171C74.4999-33.3144 74.5789-29.6986 72.4798-27.3437C72.3127-27.1751 69.0367-23.5593 66.0066-20.9524C61.9664-17.2521 56.5035-15.4017 51.0404-15.4017Z"/>
  </g>
  <g id="Regular-M" transform="matrix(1 0 0 1 1390.68 1126)">
   <path d="M9.31273-34.7595C9.31273-7.18845 31.7426 15.0675 59.1398 15.0675C86.7118 15.0675 108.967-7.35398 108.967-34.7595C108.967-62.3303 86.5471-84.5865 59.1398-84.5865C31.7426-84.752 9.31273-62.3303 9.31273-34.7595ZM84.5519-16.074C79.9037-11.008 71.6042-3.03572 71.2648-2.70361C70.1902-1.70707 68.7762-1.12592 67.3619-1.12592C65.8709-1.12592 64.3796-1.70707 63.2946-2.87019C61.1349-5.11208 61.2224-8.68286 63.4591-10.8425C63.5465-10.9258 71.846-18.8148 76.1653-23.631C78.2479-25.8739 79.2455-28.7802 79.0706-31.7699C78.9061-34.925 77.3273-37.9146 74.7513-40.1576C71.3523-43.0639 64.6211-43.7283 60.3893-39.991C57.9007-37.7491 54.8204-34.4271 54.8204-34.4271C52.7483-32.102 49.1743-32.0187 46.8502-34.095C44.5258-36.1714 44.4488-39.7422 46.521-42.0674C46.6855-42.2329 49.9304-45.8047 52.9127-48.3787C60.883-55.5203 74.0931-55.6868 82.1508-48.7111C87.0408-44.4758 89.9565-38.7456 90.373-32.5174C90.7792-26.3715 88.707-20.5589 84.5519-16.074ZM50.5113-15.6586C45.2715-15.6586 40.1295-17.4027 36.0621-20.8079C31.1617-25.0429 28.246-30.7733 27.84-37.0014C27.5003-43.0639 29.4955-48.8766 33.6503-53.4447C38.2988-58.5099 46.521-66.4822 46.9377-66.8143C49.1743-68.974 52.7483-68.8907 54.9079-66.6488C57.0676-64.4067 56.9801-60.8351 54.7434-58.6765C54.6557-58.5932 46.3565-50.7041 42.0372-45.887C39.9546-43.6451 38.9674-40.7387 39.1319-37.7491C39.2964-34.5929 40.8751-31.6033 43.4512-29.3612C46.8502-26.3715 53.5811-25.7906 57.8132-29.5277C60.3018-31.7699 63.382-35.0916 63.382-35.0916C65.4542-37.4168 69.0281-37.5001 71.3523-35.4237C73.6766-33.3473 73.7537-29.7768 71.6815-27.4514C71.5168-27.2848 68.2825-23.7143 65.2897-21.14C61.2994-17.486 55.9055-15.6586 50.5113-15.6586Z"/>
  </g>
  <g id="Light-M" transform="matrix(1 0 0 1 1094.8 1126)">
   <path d="M9.33006-34.718C9.33006-7.60559 31.3839 14.28 58.3281 14.28C85.4412 14.28 107.326-7.76849 107.326-34.718C107.326-61.8299 85.2784-83.7161 58.3281-83.7161C31.3839-83.879 9.33006-61.8299 9.33006-34.718ZM83.3171-16.3435C78.7457-11.3619 70.5823-3.52219 70.2512-3.19574C69.1928-2.21578 67.8033-1.64405 66.4131-1.64405C64.9458-1.64405 63.4779-2.21578 62.4128-3.3593C60.2894-5.56389 60.3738-9.07551 62.5751-11.199C62.6595-11.2808 70.8229-19.0387 75.0699-23.7749C77.1156-25.9802 78.0962-28.8383 77.9273-31.7782C77.7651-34.8809 76.2127-37.8208 73.6804-40.0261C70.3356-42.8842 63.7179-43.5377 59.5554-39.8625C57.1075-37.6579 54.0811-34.391 54.0811-34.391C52.0421-32.1046 48.5285-32.0228 46.2428-34.0645C43.9565-36.1062 43.8787-39.6179 45.9177-41.9042C46.08-42.0671 49.2691-45.5794 52.2043-48.1104C60.0427-55.1337 73.0308-55.2972 80.9536-48.4375C85.7657-44.2724 88.6298-38.6379 89.0387-32.5128C89.4415-26.4695 87.4025-20.7533 83.3171-16.3435ZM49.8402-15.9352C44.6904-15.9352 39.6317-17.6499 35.6314-20.9986C30.8128-25.1631 27.9487-30.7982 27.5464-36.9226C27.2147-42.8842 29.1759-48.6004 33.2607-53.092C37.8327-58.0735 45.9177-65.9132 46.3272-66.2397C48.5285-68.3632 52.0421-68.2814 54.1656-66.0768C56.2891-63.8716 56.2046-60.3599 54.0034-58.2371C53.9183-58.1553 45.7555-50.3974 41.5085-45.6605C39.4628-43.4559 38.4889-40.5978 38.6511-37.6579C38.8133-34.5545 40.3657-31.6146 42.8981-29.4094C46.2428-26.4695 52.8599-25.8984 57.023-29.573C59.471-31.7782 62.4973-35.0445 62.4973-35.0445C64.5363-37.3309 68.0499-37.4126 70.3356-35.3709C72.622-33.3292 72.6997-29.8182 70.6607-27.5313C70.4979-27.3677 67.316-23.8567 64.3741-21.325C60.4516-17.7317 55.1462-15.9352 49.8402-15.9352Z"/>
  </g>
  <g id="Thin-M" transform="matrix(1 0 0 1 799.184 1126)">
   <path d="M9.35299-34.6632C9.35299-8.1573 30.9094 13.2384 57.2546 13.2384C83.7607 13.2384 105.156-8.31671 105.156-34.6632C105.156-61.1681 83.6004-82.5649 57.2546-82.5649C30.9094-82.7243 9.35299-61.1681 9.35299-34.6632ZM81.684-16.6998C77.2142-11.8299 69.2307-4.1656 68.9106-3.84662C67.8736-2.88859 66.5165-2.32932 65.1582-2.32932C63.7223-2.32932 62.2853-2.88859 61.2467-4.0062C59.171-6.16145 59.2515-9.59482 61.4059-11.6705C61.4864-11.7502 69.4699-19.3347 73.6211-23.9653C75.618-26.1207 76.5762-28.915 76.4153-31.7891C76.256-34.8226 74.7386-37.6967 72.264-39.8522C68.9911-42.6465 62.5233-43.2855 58.4525-39.6926C56.0584-37.5373 53.1034-34.3432 53.1034-34.3432C51.1082-32.1081 47.6743-32.0283 45.4394-34.0242C43.2034-36.02 43.1247-39.4534 45.1198-41.6885C45.2791-41.8479 48.3945-45.2814 51.2674-47.7556C58.9313-54.6224 71.626-54.7819 79.3703-48.0757C84.0792-44.0033 86.875-38.4954 87.274-32.5069C87.6723-26.5991 85.6771-21.0105 81.684-16.6998ZM48.9527-16.3011C43.922-16.3011 38.9734-17.9768 35.0618-21.2508C30.3513-25.3221 27.5554-30.8311 27.1582-36.8185C26.8369-42.6465 28.7533-48.2351 32.7454-52.6256C37.2162-57.4965 45.1198-65.1607 45.5199-65.4797C47.6743-67.5553 51.1082-67.4756 53.1838-65.3203C55.2594-63.1639 55.179-59.7315 53.0246-57.656C52.943-57.5762 44.9606-49.9918 40.8093-45.361C38.8125-43.2058 37.856-40.4114 38.0152-37.5373C38.1744-34.5037 39.6919-31.6296 42.1665-29.4732C45.4394-26.5991 51.906-26.041 55.978-29.6328C58.3721-31.7891 61.3271-34.9822 61.3271-34.9822C63.3223-37.2173 66.7562-37.297 68.9911-35.3012C71.227-33.3053 71.3058-29.8731 69.3106-27.6369C69.1503-27.4774 66.0377-24.0451 63.1631-21.5698C59.3303-18.0566 54.142-16.3011 48.9527-16.3011Z"/>
  </g>
  <g id="Ultralight-M" transform="matrix(1 0 0 1 503.034 1126)">
   <path d="M9.36473-34.6352C9.36473-8.43988 30.6664 12.7049 56.7048 12.7049C82.9 12.7049 104.045-8.5975 104.045-34.6352C104.045-60.8291 82.7409-81.9752 56.7048-81.9752C30.6664-82.1329 9.36473-60.8291 9.36473-34.6352ZM80.8475-16.8823C76.4298-12.0696 68.5385-4.49515 68.2239-4.18C67.1979-3.2332 65.8574-2.68031 64.5155-2.68031C63.0957-2.68031 61.6745-3.2332 60.6494-4.33753C58.5982-6.46752 58.6766-9.86081 60.8071-11.9119C60.8855-11.9907 68.7768-19.4864 72.8791-24.0628C74.8509-26.1927 75.7977-28.9544 75.6408-31.7948C75.4831-34.7928 73.9835-37.6332 71.5386-39.7631C68.3024-42.5247 61.9115-43.1564 57.8876-39.6056C55.5211-37.4756 52.6025-34.3187 52.6025-34.3187C50.6298-32.1099 47.2368-32.0312 45.0279-34.0035C42.8177-35.9759 42.7385-39.3692 44.7112-41.5779C44.8689-41.7355 47.9465-45.1288 50.7875-47.5739C58.3621-54.3605 70.9064-54.518 78.5594-47.8904C83.2154-43.8654 85.9763-38.4224 86.3701-32.5038C86.7661-26.6655 84.7934-21.1422 80.8475-16.8823ZM48.498-16.4884C43.5283-16.4884 38.6362-18.1443 34.7701-21.38C30.1149-25.4035 27.354-30.848 26.9593-36.7652C26.6434-42.5247 28.5369-48.048 32.4814-52.3867C36.9005-57.2009 44.7112-64.7753 45.1064-65.0904C47.2368-67.1416 50.6298-67.0628 52.681-64.9328C54.7321-62.8015 54.6537-59.4096 52.5232-57.3584C52.4435-57.2796 44.5535-49.784 40.4512-45.2076C38.4794-43.0776 37.5318-40.316 37.6895-37.4756C37.8472-34.4776 39.3468-31.6372 41.7917-29.5059C45.0279-26.6655 51.4175-26.114 55.4427-29.6634C57.8092-31.7948 60.7278-34.9503 60.7278-34.9503C62.7005-37.1591 66.0935-37.2378 68.3024-35.2655C70.5126-33.2931 70.5918-29.9012 68.6191-27.6911C68.4601-27.5335 65.3829-24.1416 62.5428-21.6951C58.7559-18.223 53.6277-16.4884 48.498-16.4884Z"/>
  </g>
  <g id="Black-S" transform="matrix(1 0 0 1 2884.07 696)">
   <path d="M7.34-34.7872C7.34-11.5472 26.24 7.21277 49.34 7.21277C72.58 7.21277 91.34-11.6872 91.34-34.7872C91.34-58.0272 72.44-76.7872 49.34-76.7872C26.24-76.9272 7.34-58.0272 7.34-34.7872ZM70.76-19.0372C66.84-14.7672 59.84-8.04723 59.56-7.76723C58.65-6.92723 57.46-6.43723 56.27-6.43723C55.01-6.43723 53.75-6.92723 52.84-7.90723C51.02-9.79723 51.09-12.8072 52.98-14.6272C53.05-14.6972 60.05-21.3472 63.69-25.4072C65.44-27.2972 66.28-29.7472 66.14-32.2672C66-34.9272 64.67-37.4472 62.5-39.3372C59.63-41.7872 53.96-42.3472 50.39-39.1972C48.29-37.3072 45.7-34.5072 45.7-34.5072C43.95-32.5472 40.94-32.4772 38.98-34.2272C37.02-35.9772 36.95-38.9872 38.7-40.9472C38.84-41.0872 41.57-44.0972 44.09-46.2672C50.81-52.2872 61.94-52.4272 68.73-46.5472C72.86-42.9772 75.31-38.1472 75.66-32.8972C76.01-27.7172 74.26-22.8172 70.76-19.0372ZM42.06-18.6872C37.65-18.6872 33.31-20.1572 29.88-23.0272C25.75-26.5972 23.3-31.4272 22.95-36.6772C22.67-41.7872 24.35-46.6872 27.85-50.5372C31.77-54.8072 38.7-61.5272 39.05-61.8072C40.94-63.6272 43.95-63.5572 45.77-61.6672C47.59-59.7772 47.52-56.7672 45.63-54.9472C45.56-54.8772 38.56-48.2272 34.92-44.1672C33.17-42.2772 32.33-39.8272 32.47-37.3072C32.61-34.6472 33.94-32.1272 36.11-30.2372C38.98-27.7172 44.65-27.2272 48.22-30.3772C50.32-32.2672 52.91-35.0672 52.91-35.0672C54.66-37.0272 57.67-37.0972 59.63-35.3472C61.59-33.5972 61.66-30.5872 59.91-28.6272C59.77-28.4872 57.04-25.4772 54.52-23.3072C51.16-20.2272 46.61-18.6872 42.06-18.6872Z"/>
  </g>
  <g id="Heavy-S" transform="matrix(1 0 0 1 2587.96 696)">
   <path d="M7.3282-34.8094C7.3282-11.9025 25.9591 6.58872 48.7263 6.58872C71.6336 6.58872 90.1245-12.0403 90.1245-34.8094C90.1245-57.7164 71.4959-76.2076 48.7263-76.2076C25.9591-76.3454 7.3282-57.7164 7.3282-34.8094ZM69.8395-19.2851C65.9762-15.0762 59.0777-8.45249 58.8-8.1765C57.9042-7.34854 56.7307-6.86562 55.5572-6.86562C54.3161-6.86562 53.075-7.34854 52.1768-8.31461C50.3827-10.1775 50.4527-13.1443 52.3144-14.9383C52.3844-15.0074 59.2829-21.562 62.871-25.5637C64.5974-27.4268 65.4256-29.8416 65.2856-32.3255C65.148-34.9473 63.8368-37.4312 61.6975-39.2943C58.87-41.7091 53.2803-42.2611 49.7622-39.1562C47.6929-37.2933 45.1383-34.5334 45.1383-34.5334C43.4142-32.6015 40.4467-32.5325 38.515-34.2575C36.5834-35.9824 36.5157-38.9492 38.2398-40.8812C38.3774-41.019 41.0696-43.9861 43.5519-46.1249C50.1751-52.0585 61.147-52.1966 67.8402-46.4009C71.9088-42.8821 74.3258-38.1213 74.6711-32.9466C75.014-27.8407 73.29-23.011 69.8395-19.2851ZM41.5526-18.94C37.2039-18.94 32.9276-20.389 29.5472-23.2179C25.4762-26.7367 23.0593-31.4976 22.7163-36.6723C22.4387-41.7091 24.0951-46.5388 27.5455-50.3338C31.4089-54.5424 38.2398-61.1661 38.585-61.4421C40.4467-63.2362 43.4142-63.1671 45.2083-61.3042C47.0023-59.4414 46.9323-56.4743 45.0706-54.6805C45.0006-54.6115 38.1021-48.0568 34.514-44.0549C32.7876-42.192 31.9618-39.7772 32.0994-37.2933C32.2371-34.6713 33.5482-32.1874 35.6875-30.3246C38.515-27.8407 44.1048-27.3578 47.6229-30.4627C49.6922-32.3255 52.2468-35.0854 52.2468-35.0854C53.9708-37.0173 56.9383-37.0864 58.87-35.3614C60.8017-33.6364 60.8693-30.6696 59.1453-28.7377C59.0077-28.5996 56.3178-25.6328 53.8332-23.4939C50.5204-20.4581 46.0365-18.94 41.5526-18.94Z"/>
  </g>
  <g id="Bold-S" transform="matrix(1 0 0 1 2291.93 696)">
   <path d="M7.315-34.8343C7.315-12.2998 25.645 5.89075 48.04 5.89075C70.575 5.89075 88.765-12.4353 88.765-34.8343C88.765-57.3688 70.44-75.5593 48.04-75.5593C25.645-75.6948 7.315-57.3688 7.315-34.8343ZM68.81-19.5623C65.01-15.4218 58.225-8.90575 57.95-8.63425C57.07-7.81975 55.915-7.34475 54.76-7.34475C53.54-7.34475 52.32-7.81975 51.435-8.77025C49.67-10.6028 49.74-13.5213 51.57-15.2863C51.64-15.3543 58.425-21.8023 61.955-25.7388C63.655-27.5718 64.47-29.9473 64.33-32.3908C64.195-34.9698 62.905-37.4133 60.8-39.2463C58.02-41.6218 52.52-42.1648 49.06-39.1103C47.025-37.2778 44.51-34.5628 44.51-34.5628C42.815-32.6623 39.895-32.5943 37.995-34.2913C36.095-35.9883 36.03-38.9068 37.725-40.8073C37.86-40.9428 40.51-43.8618 42.95-45.9658C49.465-51.8028 60.26-51.9388 66.845-46.2373C70.845-42.7758 73.225-38.0923 73.565-33.0018C73.9-27.9788 72.205-23.2278 68.81-19.5623ZM40.985-19.2228C36.705-19.2228 32.5-20.6483 29.175-23.4313C25.17-26.8928 22.79-31.5763 22.455-36.6668C22.18-41.6218 23.81-46.3728 27.205-50.1063C31.005-54.2463 37.725-60.7623 38.065-61.0338C39.895-62.7988 42.815-62.7308 44.58-60.8983C46.345-59.0658 46.275-56.1468 44.445-54.3823C44.375-54.3143 37.59-47.8663 34.06-43.9293C32.36-42.0968 31.55-39.7213 31.685-37.2778C31.82-34.6983 33.11-32.2548 35.215-30.4223C37.995-27.9788 43.495-27.5038 46.955-30.5583C48.99-32.3908 51.505-35.1058 51.505-35.1058C53.2-37.0063 56.12-37.0743 58.02-35.3773C59.92-33.6803 59.985-30.7618 58.29-28.8613C58.155-28.7253 55.51-25.8068 53.065-23.7028C49.805-20.7163 45.395-19.2228 40.985-19.2228Z"/>
  </g>
  <g id="Semibold-S" transform="matrix(1 0 0 1 1995.69 696)">
   <path d="M7.3059-34.8514C7.3059-12.5737 25.4284 5.40953 47.5668 5.40953C69.8452 5.40953 87.8277-12.7075 87.8277-34.8514C87.8277-57.1291 69.712-75.1123 47.5668-75.1123C25.4284-75.2461 7.3059-57.1291 7.3059-34.8514ZM68.1002-19.7534C64.3439-15.66 57.6371-9.21826 57.364-8.94985C56.4949-8.14463 55.3526-7.67509 54.2104-7.67509C53.0049-7.67509 51.7995-8.14463 50.9236-9.08439C49.1786-10.896 49.2486-13.7812 51.0568-15.5261C51.1268-15.5934 57.8335-21.9679 61.3235-25.8594C63.0053-27.6717 63.8112-30.0201 63.6712-32.4357C63.538-34.9852 62.2625-37.4009 60.1812-39.2131C57.434-41.5615 51.9958-42.0983 48.5759-39.0786C46.5645-37.267 44.0768-34.583 44.0768-34.583C42.4019-32.7041 39.5146-32.6369 37.6365-34.3146C35.7583-35.9923 35.6951-38.8775 37.3701-40.7563C37.5033-40.8902 40.1242-43.776 42.535-45.856C48.9754-51.6264 59.6485-51.7609 66.1589-46.1244C70.1115-42.7024 72.4661-38.0722 72.8024-33.0398C73.132-28.0739 71.457-23.3772 68.1002-19.7534ZM40.5937-19.4177C36.361-19.4177 32.2052-20.827 28.9184-23.5783C24.9589-27.0003 22.6044-31.6305 22.2748-36.6629C22.0016-41.5615 23.6134-46.2583 26.9702-49.9494C30.7265-54.0421 37.3701-60.4838 37.7065-60.7522C39.5146-62.4972 42.4019-62.4299 44.1468-60.6183C45.8918-58.8068 45.8218-55.9209 44.0137-54.1766C43.9437-54.1093 37.2369-47.7349 33.747-43.8426C32.0652-42.0311 31.2661-39.6827 31.3993-37.267C31.5324-34.7168 32.8079-32.3012 34.8892-30.4896C37.6365-28.0739 43.0746-27.6044 46.4945-30.6241C48.5059-32.4357 50.9936-35.1198 50.9936-35.1198C52.6686-36.9986 55.5558-37.0659 57.434-35.3882C59.3121-33.7105 59.3753-30.8253 57.7003-28.9464C57.5671-28.8119 54.9531-25.9267 52.5354-23.8467C49.3118-20.8943 44.9527-19.4177 40.5937-19.4177Z"/>
  </g>
  <g id="Medium-S" transform="matrix(1 0 0 1 1699.33 696)">
   <path d="M7.299-34.8644C7.299-12.7814 25.2642 5.04465 47.208 5.04465C69.2918 5.04465 87.117-12.914 87.117-34.8644C87.117-56.9473 69.16-74.7734 47.208-74.7734C25.2642-74.906 7.299-56.9473 7.299-34.8644ZM67.562-19.8983C63.8388-15.8407 57.1914-9.45521 56.9196-9.18915C56.0588-8.39097 54.9262-7.92557 53.7936-7.92557C52.5992-7.92557 51.4048-8.39097 50.5358-9.32259C48.806-11.1183 48.876-13.9782 50.6676-15.708C50.7376-15.7748 57.385-22.0935 60.8446-25.9509C62.5126-27.7475 63.3116-30.0753 63.1716-32.4698C63.0398-34.997 61.7754-37.3915 59.712-39.188C56.9896-41.5159 51.5984-42.048 48.2088-39.0546C46.2154-37.2589 43.7484-34.5983 43.7484-34.5983C42.0886-32.7359 39.2262-32.6692 37.3646-34.3322C35.503-35.9953 35.4412-38.8553 37.101-40.7177C37.2328-40.8503 39.8316-43.7111 42.2204-45.7728C48.6042-51.4927 59.1848-51.6261 65.6386-46.0389C69.5554-42.6468 71.8906-38.0571 72.2242-33.0687C72.5496-28.1461 70.8898-23.4905 67.562-19.8983ZM40.297-19.5655C36.1002-19.5655 31.9816-20.9625 28.7238-23.6898C24.7988-27.0819 22.4636-31.6716 22.1382-36.6601C21.8664-41.5159 23.4644-46.1715 26.7922-49.8304C30.5154-53.8872 37.101-60.2727 37.4346-60.5387C39.2262-62.2685 42.0886-62.2018 43.8184-60.4061C45.5482-58.6104 45.4782-55.7497 43.6866-54.0207C43.6166-53.954 36.9692-47.6352 33.5096-43.777C31.8416-41.9813 31.0508-39.6534 31.1826-37.2589C31.3144-34.7309 32.5788-32.3364 34.6422-30.5407C37.3646-28.1461 42.7558-27.6807 46.1454-30.6741C48.1388-32.4698 50.6058-35.1304 50.6058-35.1304C52.2656-36.9928 55.128-37.0596 56.9896-35.3965C58.8512-33.7334 58.913-30.8735 57.2532-29.011C57.1214-28.8776 54.5308-26.0177 52.1338-23.9559C48.9378-21.0292 44.6174-19.5655 40.297-19.5655Z"/>
  </g>
  <g id="Regular-S" transform="matrix(1 0 0 1 1403.08 696)">
   <path d="M7.29-34.8813C7.29-13.0523 25.05 4.56872 46.74 4.56872C68.57 4.56872 86.19-13.1833 86.19-34.8813C86.19-56.7103 68.44-74.3313 46.74-74.3313C25.05-74.4623 7.29-56.7103 7.29-34.8813ZM66.86-20.0873C63.18-16.0763 56.61-9.76428 56.34-9.50128C55.49-8.71228 54.37-8.25228 53.25-8.25228C52.07-8.25228 50.89-8.71228 50.03-9.63328C48.32-11.4083 48.39-14.2353 50.16-15.9453C50.23-16.0113 56.8-22.2573 60.22-26.0703C61.87-27.8463 62.66-30.1473 62.52-32.5143C62.39-35.0123 61.14-37.3793 59.1-39.1553C56.41-41.4563 51.08-41.9823 47.73-39.0233C45.76-37.2483 43.32-34.6183 43.32-34.6183C41.68-32.7773 38.85-32.7113 37.01-34.3553C35.17-35.9993 35.11-38.8263 36.75-40.6673C36.88-40.7983 39.45-43.6263 41.81-45.6643C48.12-51.3183 58.58-51.4503 64.96-45.9273C68.83-42.5743 71.14-38.0373 71.47-33.1063C71.79-28.2403 70.15-23.6383 66.86-20.0873ZM39.91-19.7583C35.76-19.7583 31.69-21.1393 28.47-23.8353C24.59-27.1883 22.28-31.7253 21.96-36.6563C21.69-41.4563 23.27-46.0583 26.56-49.6753C30.24-53.6853 36.75-59.9973 37.08-60.2603C38.85-61.9703 41.68-61.9043 43.39-60.1293C45.1-58.3543 45.03-55.5263 43.26-53.8173C43.19-53.7513 36.62-47.5053 33.2-43.6913C31.55-41.9163 30.77-39.6153 30.9-37.2483C31.03-34.7493 32.28-32.3823 34.32-30.6073C37.01-28.2403 42.34-27.7803 45.69-30.7393C47.66-32.5143 50.1-35.1443 50.1-35.1443C51.74-36.9853 54.57-37.0513 56.41-35.4073C58.25-33.7633 58.31-30.9363 56.67-29.0953C56.54-28.9633 53.98-26.1363 51.61-24.0983C48.45-21.2053 44.18-19.7583 39.91-19.7583Z"/>
  </g>
  <g id="Light-S" transform="matrix(1 0 0 1 1107.1 696)">
   <path d="M7.30533-34.8446C7.30533-13.4213 24.7327 3.87204 46.022 3.87204C67.446 3.87204 84.7387-13.55 84.7387-34.8446C84.7387-56.2676 67.3177-73.5613 46.022-73.5613C24.7327-73.69 7.30533-56.2676 7.30533-34.8446ZM65.7677-20.3256C62.1557-16.3893 55.706-10.1946 55.4433-9.93663C54.6077-9.16229 53.5093-8.71063 52.4107-8.71063C51.2517-8.71063 50.0923-9.16229 49.25-10.066C47.572-11.808 47.6393-14.5826 49.378-16.2606C49.4453-16.3253 55.895-22.4553 59.251-26.1976C60.8683-27.9403 61.6433-30.1986 61.5087-32.5216C61.3807-34.9733 60.154-37.2963 58.1527-39.039C55.5107-41.2973 50.281-41.8136 46.9923-38.9096C45.0583-37.1676 42.666-34.5863 42.666-34.5863C41.0553-32.7796 38.2787-32.715 36.4727-34.3283C34.6663-35.9416 34.6057-38.7163 36.2163-40.523C36.3443-40.6516 38.865-43.427 41.1833-45.427C47.3767-50.9763 57.6403-51.1056 63.901-45.6853C67.702-42.3943 69.9663-37.942 70.2897-33.1023C70.6067-28.327 68.996-23.8103 65.7677-20.3256ZM39.3163-20.003C35.246-20.003 31.2497-21.358 28.089-24.004C24.2813-27.2946 22.017-31.7473 21.7003-36.5866C21.4373-41.2973 22.9873-45.814 26.2153-49.3633C29.8277-53.2993 36.2163-59.494 36.54-59.752C38.2787-61.43 41.0553-61.3653 42.7333-59.6233C44.4113-57.881 44.344-55.106 42.6053-53.4286C42.5377-53.364 36.0883-47.234 32.7323-43.491C31.115-41.749 30.3467-39.4906 30.4747-37.1676C30.6027-34.7153 31.8293-32.3923 33.8307-30.65C36.4727-28.327 41.702-27.8756 44.991-30.7793C46.925-32.5216 49.3173-35.1026 49.3173-35.1026C50.928-36.9093 53.7047-36.974 55.5107-35.3606C57.317-33.7473 57.3777-30.973 55.767-29.166C55.6387-29.0366 53.125-26.2623 50.8-24.262C47.7-21.4226 43.5083-20.003 39.3163-20.003Z"/>
  </g>
  <g id="Thin-S" transform="matrix(1 0 0 1 811.359 696)">
   <path d="M7.32561-34.7961C7.32561-13.9093 24.313 2.95063 45.0724 2.95063C65.9594 2.95063 82.8192-14.0349 82.8192-34.7961C82.8192-55.6822 65.8333-72.5429 45.0724-72.5429C24.313-72.6685 7.32561-55.6822 7.32561-34.7961ZM64.323-20.6409C60.8009-16.8033 54.5104-10.7638 54.2574-10.5124C53.4407-9.75747 52.371-9.31682 51.3006-9.31682C50.1694-9.31682 49.0374-9.75747 48.2184-10.6382C46.5827-12.3366 46.6465-15.042 48.3437-16.6777C48.4075-16.7406 54.6981-22.7172 57.9694-26.3661C59.5435-28.0646 60.2987-30.2665 60.1711-32.5313C60.0457-34.9217 58.8499-37.1865 56.8997-38.8851C54.3212-41.087 49.2243-41.5906 46.0167-38.7593C44.1303-37.061 41.801-34.544 41.801-34.544C40.2292-32.7827 37.523-32.7198 35.762-34.2926C34.0002-35.8654 33.9386-38.5708 35.5105-40.3321C35.6359-40.4577 38.0913-43.1633 40.3545-45.1131C46.3935-50.524 56.3975-50.6498 62.5004-45.3652C66.2101-42.1562 68.4141-37.8159 68.7286-33.097C69.0416-28.4416 67.4697-24.0378 64.323-20.6409ZM38.5312-20.3266C34.5662-20.3266 30.6673-21.6472 27.5851-24.2271C23.8731-27.4353 21.6692-31.7764 21.3569-36.4945C21.1032-41.087 22.6135-45.4908 25.7595-48.9507C29.2823-52.7888 35.5105-58.8283 35.8258-59.0797C37.523-60.7153 40.2292-60.6524 41.8648-58.9541C43.5005-57.255 43.4367-54.5501 41.7395-52.9146C41.6749-52.8517 35.3852-46.8751 32.1138-43.226C30.5397-41.5277 29.7868-39.3258 29.9121-37.061C30.0375-34.6703 31.2333-32.4055 33.1835-30.7064C35.762-28.4416 40.8582-28.0017 44.0665-30.8322C45.9529-32.5313 48.2822-35.0475 48.2822-35.0475C49.8541-36.8088 52.5602-36.8717 54.3212-35.2989C56.083-33.7261 56.1446-31.0215 54.5727-29.2594C54.4466-29.1336 51.9942-26.429 49.7287-24.4784C46.7081-21.7101 42.62-20.3266 38.5312-20.3266Z"/>
  </g>
  <g id="Ultralight-S" transform="matrix(1 0 0 1 515.144 696)">
   <path d="M7.336-34.7713C7.336-14.1593 24.098 2.47868 44.586 2.47868C65.198 2.47868 81.836-14.2833 81.836-34.7713C81.836-55.3823 65.073-72.0213 44.586-72.0213C24.098-72.1453 7.336-55.3823 7.336-34.7713ZM63.583-20.8023C60.107-17.0153 53.898-11.0553 53.65-10.8073C52.843-10.0623 51.788-9.62732 50.732-9.62732C49.615-9.62732 48.497-10.0623 47.69-10.9313C46.076-12.6073 46.138-15.2773 47.814-16.8913C47.876-16.9533 54.085-22.8513 57.313-26.4523C58.865-28.1283 59.61-30.3013 59.486-32.5363C59.362-34.8953 58.182-37.1303 56.258-38.8063C53.712-40.9793 48.683-41.4763 45.517-38.6823C43.655-37.0063 41.358-34.5223 41.358-34.5223C39.806-32.7843 37.136-32.7223 35.398-34.2743C33.659-35.8263 33.597-38.4963 35.149-40.2343C35.273-40.3583 37.695-43.0283 39.93-44.9523C45.89-50.2923 55.761-50.4163 61.783-45.2013C65.446-42.0343 67.619-37.7513 67.929-33.0943C68.24-28.5003 66.688-24.1543 63.583-20.8023ZM38.129-20.4923C34.218-20.4923 30.369-21.7953 27.327-24.3413C23.664-27.5073 21.491-31.7913 21.181-36.4473C20.932-40.9793 22.422-45.3253 25.526-48.7393C29.003-52.5273 35.149-58.4873 35.46-58.7353C37.136-60.3493 39.806-60.2873 41.42-58.6113C43.034-56.9343 42.972-54.2653 41.296-52.6513C41.233-52.5893 35.025-46.6913 31.797-43.0903C30.245-41.4143 29.5-39.2413 29.624-37.0063C29.748-34.6473 30.928-32.4123 32.852-30.7353C35.398-28.5003 40.426-28.0663 43.593-30.8593C45.455-32.5363 47.752-35.0193 47.752-35.0193C49.304-36.7573 51.974-36.8193 53.712-35.2673C55.451-33.7153 55.513-31.0463 53.961-29.3073C53.836-29.1833 51.415-26.5143 49.18-24.5893C46.2-21.8573 42.165-20.4923 38.129-20.4923Z"/>
  </g>
 </g>
</svg>
