<?xml version="1.0" encoding="UTF-8" standalone="no"?>
<!DOCTYPE svg PUBLIC "-//W3C//DTD SVG 1.1//EN" "http://www.w3.org/Graphics/SVG/1.1/DTD/svg11.dtd">
<svg width="100%" height="100%" viewBox="0 0 1023 1023" version="1.1" xmlns="http://www.w3.org/2000/svg" xmlns:xlink="http://www.w3.org/1999/xlink" xml:space="preserve" xmlns:serif="http://www.serif.com/" style="fill-rule:evenodd;clip-rule:evenodd;stroke-linejoin:round;stroke-miterlimit:2;">
    <g transform="matrix(6.29941,0,0,6.29941,11.3998,723.706)">
        <path d="M142.871,-68.066L142.871,-91.357C142.871,-94.482 140.332,-96.533 137.305,-95.898L105.762,-89.014C102.051,-88.232 100.049,-86.182 100.049,-82.91L100.195,-13.477C100.439,-10.205 98.877,-8.008 95.947,-7.422L85.986,-5.322C73.633,-2.783 67.822,3.418 67.822,12.793C67.822,22.168 75,28.711 85.205,28.711C94.336,28.711 107.861,22.07 107.861,4.053L107.861,-52.978C107.861,-56.494 108.594,-57.324 111.768,-58.057L139.697,-64.16C141.65,-64.6 142.871,-66.065 142.871,-68.066ZM19.775,-65.527L76.904,-65.527C78.955,-65.527 80.615,-67.188 80.615,-69.238C80.615,-71.24 78.955,-72.9 76.904,-72.9L19.775,-72.9C17.725,-72.9 16.064,-71.24 16.064,-69.238C16.064,-67.188 17.725,-65.527 19.775,-65.527ZM19.775,-43.457L76.904,-43.457C79.004,-43.457 80.615,-45.117 80.615,-47.168C80.615,-49.17 78.955,-50.781 76.904,-50.781L19.775,-50.781C17.725,-50.781 16.064,-49.17 16.064,-47.168C16.064,-45.117 17.676,-43.457 19.775,-43.457ZM19.775,-21.338L76.904,-21.338C79.004,-21.338 80.615,-22.949 80.615,-25.049C80.615,-27.051 78.955,-28.711 76.904,-28.711L19.775,-28.711C17.725,-28.711 16.064,-27.051 16.064,-25.049C16.064,-22.949 17.676,-21.338 19.775,-21.338Z" style="fill:white;fill-rule:nonzero;"/>
    </g>
</svg>
